<svg width="128" height="128" viewBox="0 0 128 128" xmlns="http://www.w3.org/2000/svg">
  <defs>
    <linearGradient id="grad" x1="0%" y1="0%" x2="100%" y2="100%">
      <stop offset="0%" style="stop-color:#4f46e5;stop-opacity:1" />
      <stop offset="100%" style="stop-color:#7c3aed;stop-opacity:1" />
    </linearGradient>
  </defs>
  
  <!-- Background circle -->
  <circle cx="64" cy="64" r="60" fill="url(#grad)" stroke="#ffffff" stroke-width="4"/>
  
  <!-- Document shape -->
  <rect x="32" y="25" width="56" height="70" rx="4" fill="#ffffff" opacity="0.9"/>
  <polygon points="72,25 88,25 88,41 72,41" fill="#e5e7eb"/>
  
  <!-- Slides representation -->
  <rect x="40" y="35" width="40" height="8" fill="#4f46e5" opacity="0.3"/>
  <rect x="40" y="47" width="40" height="8" fill="#4f46e5" opacity="0.5"/>
  <rect x="40" y="59" width="40" height="8" fill="#4f46e5" opacity="0.7"/>
  
  <!-- Download arrow -->
  <path d="M64 65 L64 85 M56 77 L64 85 L72 77" stroke="#4f46e5" stroke-width="3" fill="none" stroke-linecap="round" stroke-linejoin="round"/>
  
  <!-- Spark effect -->
  <path d="M20 30 L25 35 L20 40 L15 35 Z" fill="#fbbf24"/>
  <path d="M105 85 L110 90 L105 95 L100 90 Z" fill="#fbbf24"/>
  <circle cx="25" cy="90" r="3" fill="#fbbf24"/>
  <circle cx="100" cy="35" r="2" fill="#fbbf24"/>
</svg>